/* XPM */
static char *_3d70239ceb64beec26dbb2962e11ba5hbibvn17fd7CvHbe[] = {
/* columns rows colors chars-per-pixel */
"64 64 38 1 ",
"  c None",
". c #222034",
"X c #45283C",
"o c #663931",
"O c #8F563B",
"+ c #DF7126",
"@ c #D9A066",
"# c #EEC39A",
"$ c #FBF236",
"% c #99E550",
"& c #6ABE30",
"* c #37946E",
"= c #4B692F",
"- c #524B24",
"; c #323C39",
": c #3F3F74",
"> c #306082",
", c #5B6EE1",
"< c #639BFF",
"1 c #5FCDE4",
"2 c #CBDBFC",
"3 c white",
"4 c #9BADB7",
"5 c #847E87",
"6 c #696A6A",
"7 c #595652",
"8 c #76428A",
"9 c #AC3232",
"0 c #D95763",
"q c #D77BBA",
"w c #8F974A",
"e c #8A6F30",
"r c #246248",
"t c #253F31",
"y c #3B1212",
"u c #333627",
"i c #28321D",
"p c #231920",
/* pixels */
"%%%%%%%%%%%%%%%%%%%%%%%%%%%%%%%%================================",
"%%%%%%%%%%%%%%%%%%%%%%%%%%%%%%%%================================",
"%%%%%%%%%%%%%%%%%%%%%%%%%%%%%%%%================================",
"%%%%%%%%%%%%%%%%%%%%%%%%%%%%%%%%================================",
"%%%%%%%%%%%%%%%%%%%%%%%%%%%%%%%%================================",
"%%%%%%%%%%%%%%%%%%%%%%%%%%%%%%%%================================",
"%%%%%%%%%%%%%%%%%%%%%%%%%%%%%%%%================================",
"%%%%%%%%%%%%%%%%%%%%%%%%%%%%%%%%================================",
"%%%%%%%%%%%%%%%%%%%%%%%%%%%%%%%%================================",
"%%%%%%%%%%%%%%%%%%%%%%%%%%%%%%%%================================",
"%%%%%%%%%%%%%%%%%%%%%%%%%%%%%%%%================================",
"%%%%%%%%%%%%%%%%%%%%%%%%%%%%%%%%================================",
"%%%%%%%%%%%%%%%%%%%%%%%%%%%%%%%%================================",
"%%%%%%%%%%%%%%%%%%%%%%%%%%%%%%%%================================",
"%%%%%%%%%%%%%%%%%%%%%%%%%%%%%%%%================================",
"%%%%%%%%%%%%%%%%%%%%%%%%%%%%%%%%================================",
"%%%%%%%%%%%%%%%%%%%%%%%%%%%%%%%%================================",
"%%%%%%%%%%%%%%%%%%%%%%%%%%%%%%%%================================",
"%%%%%%%%%%%%%%%%%%%%%%%%%%%%%%%%================================",
"%%%%%%%%%%%%%%%%%%%%%%%%%%%%%%%%================================",
"%%%%%%%%%%%%%%%%%%%%%%%%%%%%%%%%================================",
"%%%%%%%%%%%%%%%%%%%%%%%%%%%%%%%%================================",
"%%%%%%%%%%%%%%%%%%%%%%%%%%%%%%%%================================",
"%%%%%%%%%%%%%%%%%%%%%%%%%%%%%%%%================================",
"%%%%%%%%%%%%%%%%%%%%%%%%%%%%%%%%================================",
"%%%%%%%%%%%%%%%%%%%%%%%%%%%%%%%%================================",
"%%%%%%%%%%%%%%%%%%%%%%%%%%%%%%%%================================",
"%%%%%%%%%%%%%%%%%%%%%%%%%%%%%%%%================================",
"%%%%%%%%%%%%%%%%%%%%%%%%%%%%%%%%================================",
"%%%%%%%%%%%%%%%%%%%%%%%%%%%%%%%%================================",
"%%%%%%%%%%%%%%%%%%%%%%%%%%%%%%%%================================",
"%%%%%%%%%%%%%%%%%%%%%%%%%%%%%%%%================================",
"================================%%%%%%%%%%%%%%%%%%%%%%%%%%%%%%%%",
"================================%%%%%%%%%%%%%%%%%%%%%%%%%%%%%%%%",
"================================%%%%%%%%%%%%%%%%%%%%%%%%%%%%%%%%",
"================================%%%%%%%%%%%%%%%%%%%%%%%%%%%%%%%%",
"================================%%%%%%%%%%%%%%%%%%%%%%%%%%%%%%%%",
"================================%%%%%%%%%%%%%%%%%%%%%%%%%%%%%%%%",
"================================%%%%%%%%%%%%%%%%%%%%%%%%%%%%%%%%",
"================================%%%%%%%%%%%%%%%%%%%%%%%%%%%%%%%%",
"================================%%%%%%%%%%%%%%%%%%%%%%%%%%%%%%%%",
"================================%%%%%%%%%%%%%%%%%%%%%%%%%%%%%%%%",
"================================%%%%%%%%%%%%%%%%%%%%%%%%%%%%%%%%",
"================================%%%%%%%%%%%%%%%%%%%%%%%%%%%%%%%%",
"================================%%%%%%%%%%%%%%%%%%%%%%%%%%%%%%%%",
"================================%%%%%%%%%%%%%%%%%%%%%%%%%%%%%%%%",
"================================%%%%%%%%%%%%%%%%%%%%%%%%%%%%%%%%",
"================================%%%%%%%%%%%%%%%%%%%%%%%%%%%%%%%%",
"================================%%%%%%%%%%%%%%%%%%%%%%%%%%%%%%%%",
"================================%%%%%%%%%%%%%%%%%%%%%%%%%%%%%%%%",
"================================%%%%%%%%%%%%%%%%%%%%%%%%%%%%%%%%",
"================================%%%%%%%%%%%%%%%%%%%%%%%%%%%%%%%%",
"================================%%%%%%%%%%%%%%%%%%%%%%%%%%%%%%%%",
"================================%%%%%%%%%%%%%%%%%%%%%%%%%%%%%%%%",
"================================%%%%%%%%%%%%%%%%%%%%%%%%%%%%%%%%",
"================================%%%%%%%%%%%%%%%%%%%%%%%%%%%%%%%%",
"================================%%%%%%%%%%%%%%%%%%%%%%%%%%%%%%%%",
"================================%%%%%%%%%%%%%%%%%%%%%%%%%%%%%%%%",
"================================%%%%%%%%%%%%%%%%%%%%%%%%%%%%%%%%",
"================================%%%%%%%%%%%%%%%%%%%%%%%%%%%%%%%%",
"================================%%%%%%%%%%%%%%%%%%%%%%%%%%%%%%%%",
"================================%%%%%%%%%%%%%%%%%%%%%%%%%%%%%%%%",
"================================%%%%%%%%%%%%%%%%%%%%%%%%%%%%%%%%",
"================================%%%%%%%%%%%%%%%%%%%%%%%%%%%%%%%%"
};
